<?xml version="1.0" standalone="no"?>
<!DOCTYPE svg PUBLIC "-//W3C//DTD SVG 20010904//EN"
 "http://www.w3.org/TR/2001/REC-SVG-20010904/DTD/svg10.dtd">
<svg version="1.0" xmlns="http://www.w3.org/2000/svg"
 width="597.000000pt" height="597.000000pt" viewBox="0 0 597.000000 597.000000"
 preserveAspectRatio="xMidYMid meet">
<metadata>
Created by potrace 1.11, written by Peter Selinger 2001-2013
</metadata>
<g transform="translate(0.000000,597.000000) scale(0.100000,-0.100000)"
fill="#000000" stroke="none">
<path d="M2658 5814 c-521 -60 -1028 -271 -1448 -604 -124 -98 -348 -320 -444
-440 -315 -395 -522 -871 -603 -1390 -26 -165 -26 -636 0 -800 81 -516 262
-942 576 -1355 96 -126 356 -388 481 -485 226 -175 532 -347 773 -435 229 -84
487 -143 724 -166 195 -19 556 -7 741 25 481 84 913 275 1302 576 114 89 360
333 454 450 269 338 469 753 560 1165 52 235 61 321 61 625 0 304 -9 390 -61
625 -158 715 -605 1359 -1224 1764 -371 242 -801 397 -1243 446 -162 18 -488
18 -649 -1z m732 -188 c1009 -162 1831 -861 2144 -1824 91 -279 128 -520 128
-822 0 -430 -83 -789 -272 -1175 -380 -777 -1120 -1326 -1975 -1465 -637 -104
-1296 31 -1847 377 -290 182 -582 462 -780 748 -225 323 -382 720 -445 1125
-26 164 -26 616 0 780 76 488 273 929 583 1305 94 114 284 303 394 391 387
311 851 507 1347 569 150 19 580 13 723 -9z"/>
<path d="M2911 4848 c-57 -167 -107 -311 -112 -320 -8 -14 -14 -15 -46 -5 -21
6 -94 11 -163 11 -182 1 -301 -37 -446 -139 -125 -89 -213 -209 -267 -362 -42
-121 -49 -280 -18 -404 48 -194 164 -355 333 -462 31 -20 75 -44 98 -53 22 -9
39 -22 37 -28 -2 -6 -18 -54 -35 -106 -17 -52 -143 -437 -281 -855 -351 -1068
-353 -1075 -348 -1089 4 -11 252 -12 1369 -8 749 2 1367 8 1371 12 5 4 -1 38
-13 76 -38 118 -39 127 -18 149 11 11 26 20 33 20 31 0 18 20 -15 23 -45 4
-64 22 -24 22 l29 1 -28 15 -28 15 26 25 c14 13 30 24 36 24 23 0 6 27 -23 35
-29 9 -33 14 -31 44 0 18 7 37 14 42 9 5 10 11 2 21 -12 14 -16 46 -14 122 l1
49 23 -21 c13 -12 29 -22 36 -22 7 0 9 -4 6 -10 -3 -5 3 -10 14 -10 35 0 24
30 -16 47 -48 20 -57 33 -32 51 11 8 18 20 15 28 -3 8 0 14 7 14 7 0 4 5 -6
11 -14 8 -16 14 -6 25 6 8 19 14 28 14 9 1 27 7 41 15 22 12 23 14 7 20 -10 4
-35 5 -56 1 -21 -3 -41 -3 -44 0 -12 12 5 32 23 27 10 -3 21 0 24 6 4 6 16 11
27 11 10 0 19 5 19 10 0 6 -9 10 -19 10 -11 0 -27 3 -36 6 -15 6 -15 8 1 25
12 13 24 16 45 12 22 -4 29 -2 29 11 0 12 -10 16 -40 16 -22 0 -40 1 -40 3 0
2 20 25 45 51 37 40 44 53 38 75 -3 14 -11 30 -17 34 -8 5 -6 12 6 20 16 11
15 14 -9 39 l-27 28 37 0 c52 0 54 15 4 35 -40 16 -41 18 -19 26 13 5 20 14
17 19 -4 6 -1 17 5 25 10 12 9 15 -8 15 -14 0 -21 9 -25 30 -5 21 -12 30 -27
30 -11 0 -20 5 -20 10 0 6 7 10 15 10 18 0 18 5 5 30 -6 11 -17 16 -29 13 -24
-6 -36 13 -21 32 7 9 8 15 2 15 -5 0 -12 9 -15 21 -7 27 -32 19 -31 -10 0 -11
-2 -21 -5 -21 -17 0 -57 -48 -59 -70 -1 -24 -40 -63 -54 -54 -11 7 -10 -4 2
-27 7 -12 7 -19 1 -19 -6 0 -8 -7 -5 -15 4 -9 -3 -16 -20 -21 -32 -8 -33 -20
-5 -29 16 -6 18 -9 8 -15 -15 -10 -69 -2 -84 11 -5 5 -16 9 -25 9 -9 0 -25 9
-36 21 -18 20 -14 29 21 42 13 5 -38 53 -65 62 -26 8 -26 31 0 38 11 3 20 1
20 -5 0 -14 93 -97 103 -91 8 5 -23 49 -61 88 -13 13 -21 29 -17 34 3 6 -2 11
-13 11 -19 0 -49 26 -41 35 3 2 24 -5 48 -16 53 -24 71 -24 71 -1 0 26 -55 72
-95 79 -29 5 -35 10 -35 29 0 28 7 30 38 8 27 -18 49 -9 30 13 -7 8 -22 19
-35 24 -29 11 -30 29 -2 29 l21 0 -21 18 c-29 24 -19 61 15 54 13 -2 24 0 24
6 0 6 -10 12 -22 14 -20 3 -23 8 -20 42 4 46 -17 47 -30 1 -4 -16 -17 -37 -29
-46 -19 -14 -20 -17 -5 -32 20 -20 21 -66 1 -73 -8 -4 -15 -12 -15 -19 0 -7
-7 -18 -15 -25 -23 -19 -18 -31 10 -24 14 3 25 3 25 0 0 -9 -39 -46 -48 -46
-11 0 -42 99 -36 115 3 8 17 21 30 30 13 8 24 22 24 30 0 12 -9 13 -45 8 -38
-5 -45 -3 -45 11 0 9 5 16 10 16 18 0 10 29 -10 35 -21 7 -37 46 -26 64 4 5 1
13 -7 18 -16 10 -49 92 -41 104 3 5 -1 15 -8 23 -7 7 -170 484 -363 1060 -192
575 -355 1046 -361 1046 -5 0 -57 -136 -113 -302z m403 -609 c156 -464 309
-917 339 -1006 l56 -163 -25 0 c-24 0 -30 17 -26 73 1 9 -5 17 -13 17 -8 0
-15 7 -15 15 0 8 -6 15 -14 15 -8 0 -16 7 -20 15 -3 8 -12 15 -21 15 -11 0
-14 7 -10 23 3 12 -2 31 -11 42 l-15 20 -15 -20 c-8 -11 -13 -28 -10 -38 3
-14 0 -16 -15 -12 -26 9 -24 -9 3 -27 20 -13 21 -17 9 -32 -15 -18 -46 -21
-56 -6 -9 14 -37 0 -31 -16 3 -7 -2 -18 -11 -23 -14 -7 -14 -10 6 -20 12 -7
26 -9 33 -5 6 4 9 1 6 -7 -2 -8 -19 -18 -36 -24 -21 -6 -33 -16 -34 -30 0 -11
-1 -27 -2 -35 -1 -9 -13 -16 -28 -18 -30 -4 -38 -29 -13 -38 12 -5 13 -10 4
-20 -16 -19 -1 -37 27 -30 46 12 24 -15 -37 -44 -56 -26 -59 -29 -39 -40 13
-7 39 -9 68 -4 l47 6 -48 -44 c-46 -43 -51 -58 -17 -58 22 0 20 -39 -3 -46
-14 -4 -15 -9 -7 -19 8 -9 8 -15 0 -20 -5 -3 -10 -12 -10 -20 0 -23 73 -115
103 -128 47 -21 33 -37 -32 -37 -61 0 -75 -7 -62 -29 5 -8 21 -10 48 -7 35 6
41 3 61 -24 l22 -30 -22 -5 c-13 -2 -36 -6 -52 -7 -41 -4 -47 -28 -7 -28 17 0
31 -3 31 -8 0 -4 -20 -23 -44 -42 -88 -70 -99 -129 -38 -204 20 -25 42 -46 48
-46 6 0 17 -6 23 -14 10 -11 8 -17 -6 -25 -15 -9 -13 -10 12 -5 23 4 26 3 15
-5 -8 -6 -23 -11 -32 -11 -11 0 -18 -8 -18 -20 0 -15 7 -20 25 -20 14 0 24 5
23 12 -2 7 7 14 19 16 34 5 65 -30 70 -80 4 -38 1 -46 -26 -72 -19 -19 -62
-40 -113 -56 -46 -15 -84 -26 -86 -25 -12 10 17 34 51 45 79 23 96 32 112 56
8 13 11 24 6 24 -5 0 -11 -7 -14 -15 -4 -8 -32 -22 -64 -31 -61 -18 -112 -52
-106 -71 5 -15 -37 -26 -217 -57 -618 -106 -1008 -259 -1287 -503 -35 -30 -63
-49 -63 -43 0 7 51 168 114 359 63 190 208 628 321 974 117 354 212 627 218
627 11 0 55 -9 126 -26 l24 -5 -35 -37 c-88 -92 -160 -228 -201 -380 -14 -51
-33 -106 -41 -124 -23 -46 -20 -52 15 -27 l31 22 -15 -29 c-8 -16 -40 -60 -70
-98 -49 -62 -55 -74 -55 -118 -1 -26 -3 -52 -7 -57 -17 -29 41 -251 66 -251 5
0 9 -9 9 -20 0 -11 5 -20 10 -20 21 0 113 96 136 143 14 26 29 45 34 42 22
-13 70 115 70 186 0 21 5 41 10 44 20 12 23 -29 7 -91 -22 -83 -22 -188 2
-261 21 -65 81 -176 96 -176 16 -1 97 105 129 168 39 78 56 147 56 232 0 64 2
72 17 66 34 -13 49 -41 62 -114 8 -40 22 -90 32 -109 10 -19 28 -63 40 -97 12
-35 27 -63 33 -63 31 0 97 66 146 146 27 43 61 142 51 149 -5 2 -11 39 -15 81
-4 42 -15 99 -25 127 -10 29 -24 70 -31 92 -7 22 -29 65 -49 95 -42 63 -61
103 -61 128 0 10 -27 44 -60 77 -33 33 -60 66 -60 75 0 8 -36 51 -80 95 -44
44 -80 85 -80 91 0 6 28 17 63 24 326 63 578 344 603 674 15 197 -57 404 -196
558 -58 65 -189 156 -270 188 -30 12 -56 23 -57 24 -2 2 153 464 192 575 3 8
8 12 10 9 3 -3 133 -385 289 -849z m-654 271 c187 -23 315 -84 446 -215 75
-74 99 -106 136 -182 64 -127 82 -215 75 -362 -10 -218 -104 -401 -271 -528
-132 -100 -274 -147 -446 -147 -172 0 -294 39 -436 140 -131 92 -239 251 -281
414 -23 87 -23 254 0 340 51 191 176 354 347 453 62 36 185 75 267 86 37 5 70
9 73 10 3 0 44 -4 90 -9z m-70 -1484 c0 -26 -18 -82 -24 -75 -2 2 -6 25 -9 52
-6 42 -5 47 13 47 15 0 20 -7 20 -24z m66 -46 c-1 -60 -3 -68 -14 -53 -19 26
-36 89 -29 107 4 9 15 16 26 16 17 0 19 -7 17 -70z m-107 -42 c11 -88 4 -219
-14 -236 -9 -9 -25 19 -25 45 0 12 -5 25 -11 29 -8 5 -10 -4 -5 -32 15 -81 17
-143 8 -161 -10 -16 -12 -15 -22 12 -19 47 -23 12 -5 -40 14 -43 14 -52 -1
-105 -13 -46 -20 -58 -35 -57 -27 2 -25 67 5 203 38 170 74 384 66 389 -9 5
-15 -19 -26 -100 -21 -154 -160 -445 -254 -530 l-22 -20 13 30 c7 17 23 44 35
60 31 43 64 111 64 133 0 10 9 27 19 36 43 39 65 128 23 94 -18 -15 -15 -9 32
60 16 23 26 45 23 48 -3 4 -24 -8 -47 -26 -22 -17 -40 -29 -40 -25 0 19 44 85
79 120 39 37 59 72 26 45 -29 -24 -15 5 30 63 25 31 51 57 58 57 9 0 17 -29
26 -92z m1181 38 c-5 -5 -15 -2 -24 7 -23 22 -20 27 8 14 15 -7 21 -16 16 -21z
m-1011 -16 c19 -24 27 -40 19 -40 -7 -1 21 -32 62 -70 48 -45 69 -70 58 -70
-25 0 -23 -7 12 -47 38 -43 38 -54 0 -43 -58 17 -40 -10 39 -55 69 -40 121
-88 109 -101 -3 -2 -31 19 -63 46 -58 49 -93 64 -82 36 3 -8 1 -17 -6 -19 -9
-3 -8 -8 2 -21 15 -18 16 -119 2 -158 -7 -18 -9 -15 -15 20 -9 61 -23 52 -31
-20 -4 -35 -11 -72 -15 -83 -12 -32 -23 63 -18 160 5 91 -7 106 -18 22 l-7
-52 -14 50 c-13 53 -18 265 -5 265 4 0 15 -21 26 -48 25 -62 66 -135 73 -128
3 3 -8 32 -25 63 -16 32 -42 94 -57 138 -29 90 -64 161 -65 132 0 -10 9 -35
19 -56 18 -33 19 -48 12 -120 -5 -45 -11 -84 -14 -87 -9 -10 -20 106 -13 152
3 26 2 44 -4 44 -6 0 -11 -6 -11 -12 -1 -7 -5 1 -9 17 -11 42 -12 125 -2 125
5 0 23 -18 41 -40z m-82 -63 c18 -34 37 -91 43 -127 6 -36 13 -78 16 -93 6
-27 4 -28 -17 -22 -23 7 -23 7 -8 -11 23 -26 59 -100 59 -120 0 -13 -3 -14
-15 -4 -35 29 -31 1 7 -49 40 -52 57 -99 58 -153 0 -55 -23 -31 -54 56 -14 41
-16 5 -2 -45 18 -69 28 -149 17 -149 -4 0 -13 17 -19 38 -6 21 -35 85 -64 142
l-52 105 -11 -80 c-6 -44 -17 -91 -24 -105 -24 -45 -62 -90 -76 -90 -17 0 -3
55 27 106 15 25 18 38 10 43 -12 7 6 77 35 135 7 16 11 31 8 34 -7 7 -7 6 -44
-58 -26 -46 -31 -51 -31 -29 0 31 29 119 59 178 25 48 23 82 -2 36 -21 -39
-22 -13 -2 70 8 33 14 92 15 132 0 65 14 123 29 123 3 0 21 -28 38 -63z m1113
43 c0 -5 -4 -10 -10 -10 -5 0 -10 5 -10 10 0 6 5 10 10 10 6 0 10 -4 10 -10z
m0 -74 c17 3 30 1 30 -5 0 -16 -83 -13 -106 4 -17 13 -16 14 13 5 18 -4 46 -6
63 -4z m-240 -111 c11 -13 7 -15 -31 -14 -24 1 -35 3 -24 6 11 3 24 9 30 14
12 11 10 12 25 -6z m-581 -39 c27 -33 4 -30 -24 3 -23 26 -25 32 -9 23 11 -6
26 -18 33 -26z m-594 -16 c-10 -11 -20 -18 -23 -15 -7 6 18 35 31 35 5 0 2 -9
-8 -20z m16 -57 c-10 -20 -71 -80 -71 -71 0 3 5 18 10 35 9 25 22 35 68 52 1
1 -2 -7 -7 -16z m604 0 c4 -11 0 -11 -18 -2 -31 16 -32 18 -8 16 11 -1 23 -7
26 -14z m904 -24 c7 -23 9 -45 4 -49 -25 -21 -103 -59 -103 -50 0 6 -12 22
-27 35 l-28 24 29 1 c21 0 39 11 65 40 19 22 38 40 42 40 3 0 11 -19 18 -41z
m-1448 -80 c-11 -46 -20 -74 -20 -61 -2 47 -19 19 -26 -40 -17 -168 -42 -242
-115 -349 -41 -60 -39 -83 6 -59 49 27 122 165 139 265 l12 70 16 -32 c21 -40
21 -84 -1 -148 -12 -35 -22 -49 -33 -47 -12 2 -23 -14 -38 -51 -13 -33 -42
-73 -71 -102 l-50 -49 0 33 c0 27 -3 31 -18 27 -16 -5 -21 3 -35 51 -37 132
-30 180 40 259 77 89 119 150 165 239 23 46 44 83 45 81 2 -1 -6 -40 -16 -87z
m1259 61 c0 -5 -2 -10 -4 -10 -3 0 -8 5 -11 10 -3 6 -1 10 4 10 6 0 11 -4 11
-10z m-662 -85 c23 -16 41 -34 42 -38 0 -12 -31 9 -80 54 -46 42 -36 38 38
-16z m942 11 c-5 -15 -14 -24 -20 -21 -14 9 -12 22 7 45 21 25 28 13 13 -24z
m-942 -54 c64 -61 86 -92 64 -92 -15 0 -110 91 -131 125 -11 19 -17 35 -13 35
4 0 40 -31 80 -68z m892 24 c0 -8 -7 -16 -15 -20 -17 -6 -18 -4 -9 18 8 20 24
21 24 2z m-980 -91 c0 -26 -70 -164 -70 -139 -1 34 54 184 62 171 4 -7 8 -21
8 -32z m1000 39 c0 -13 -22 -44 -31 -44 -6 0 -22 -9 -36 -20 -14 -11 -32 -20
-40 -20 -25 0 15 60 50 75 34 15 57 19 57 9z m-826 -112 c2 -4 7 -32 11 -62
l7 -55 -46 50 c-39 43 -106 150 -106 169 0 7 127 -91 134 -102z m-125 35 c11
-23 45 -72 76 -107 51 -60 84 -124 72 -137 -3 -3 -18 15 -33 39 -15 23 -40 58
-55 76 -16 18 -32 44 -35 57 -3 14 -12 25 -20 25 -8 0 -14 9 -14 19 0 11 -4
23 -10 26 -9 6 -15 45 -6 45 2 0 14 -19 25 -43z m-324 -16 c47 -94 87 -206 87
-244 -1 -43 -45 -144 -94 -214 -18 -26 -36 -51 -39 -56 -13 -19 -47 14 -79 78
-28 56 -34 80 -38 151 l-5 85 43 36 c49 43 90 121 90 176 0 20 2 37 5 37 2 0
16 -22 30 -49z m192 -13 c-3 -8 -6 -5 -6 6 -1 11 2 17 5 13 3 -3 4 -12 1 -19z
m93 -5 c-16 -58 -42 -113 -50 -108 -11 7 4 58 30 100 26 42 31 44 20 8z m972
-15 c-7 -7 -12 -8 -12 -2 0 14 12 26 19 19 2 -3 -1 -11 -7 -17z m-1525 -10
c-3 -8 -6 -5 -6 6 -1 11 2 17 5 13 3 -3 4 -12 1 -19z m1492 8 c10 -12 4 -16
-36 -24 -26 -6 -51 -8 -55 -6 -5 3 -13 -7 -18 -22 -6 -15 -13 -24 -16 -22 -3
3 3 22 12 42 14 29 22 34 40 30 12 -3 25 -1 28 5 10 15 31 14 45 -3z m-902
-48 c-3 -7 -5 -2 -5 12 0 14 2 19 5 13 2 -7 2 -19 0 -25z m1102 6 c13 -9 19
-20 14 -25 -13 -13 -83 9 -83 26 0 20 40 19 69 -1z m-1734 -100 c-21 -41 -43
-78 -49 -83 -7 -6 8 29 31 75 24 47 44 93 44 102 1 14 2 13 6 -2 3 -10 -12
-52 -32 -92z m614 -66 c1 -76 5 -138 10 -138 17 0 32 65 38 163 l6 98 22 -21
c12 -12 34 -43 49 -71 l27 -49 -27 -51 c-29 -53 -103 -139 -120 -139 -10 0
-54 124 -54 153 0 9 -6 20 -14 24 -8 4 -18 31 -24 59 -8 45 -7 51 8 47 11 -3
23 10 40 47 32 69 38 51 39 -122z m961 137 c0 -7 -124 -65 -138 -65 -7 0 -12
-4 -12 -10 0 -5 18 -10 39 -10 22 0 43 5 46 10 3 6 16 10 27 10 11 0 37 10 56
22 40 25 34 7 -10 -30 -15 -13 -28 -29 -28 -35 0 -7 -14 -18 -30 -25 -17 -8
-28 -17 -26 -21 9 -13 75 1 92 20 22 24 31 24 39 -2 5 -16 0 -28 -20 -45 -16
-13 -35 -24 -44 -24 -12 0 -9 -6 9 -20 28 -21 23 -32 -15 -32 -37 0 -156 62
-178 94 -29 39 -17 93 25 107 17 6 36 18 43 28 8 10 25 16 46 15 19 -1 41 3
49 8 16 11 30 13 30 5z m-933 -102 c-2 -21 -4 -6 -4 32 0 39 2 55 4 38 2 -18
2 -50 0 -70z m1408 87 c3 -5 -1 -10 -10 -10 -9 0 -13 5 -10 10 3 6 8 10 10 10
2 0 7 -4 10 -10z m-255 -50 c0 -5 -7 -10 -15 -10 -8 0 -15 5 -15 10 0 6 7 10
15 10 8 0 15 -4 15 -10z m-2 -45 c29 -9 51 -19 48 -22 -5 -5 -126 37 -126 44
0 3 6 3 13 1 6 -3 36 -13 65 -23z m-92 -50 c18 -43 18 -55 -1 -55 -15 0 -35
56 -27 78 7 19 12 15 28 -23z m120 8 l52 5 -13 -26 c-10 -18 -11 -31 -4 -44 7
-14 7 -23 -1 -33 -16 -19 -4 -35 26 -35 13 0 24 -4 24 -9 0 -5 18 -7 40 -4
l40 6 0 -37 c0 -20 -3 -36 -7 -36 -5 0 -16 -15 -26 -32 -18 -31 -18 -33 -1
-45 10 -7 22 -13 26 -13 5 0 7 -17 6 -38 -3 -33 -6 -38 -23 -34 -11 3 -24 11
-28 19 -5 7 -25 13 -47 13 -22 0 -40 4 -40 9 0 4 13 7 30 5 16 -2 40 0 52 5
20 7 15 10 -35 21 -60 14 -70 21 -81 58 -6 18 -3 22 12 22 11 0 22 -7 26 -15
3 -8 15 -15 27 -15 27 0 89 46 89 66 0 19 -9 18 -49 -7 -25 -15 -41 -18 -65
-12 -17 4 -35 8 -41 8 -10 0 -25 15 -25 26 0 4 10 10 23 14 21 8 21 8 -5 12
-27 4 -45 33 -33 52 3 5 0 13 -5 16 -11 7 -20 25 -35 73 -6 22 -5 23 16 12 14
-8 43 -10 75 -7z m-196 -83 c0 -5 -5 -10 -11 -10 -5 0 -7 5 -4 10 3 6 8 10 11
10 2 0 4 -4 4 -10z m110 -30 c0 -5 -5 -10 -11 -10 -5 0 -7 5 -4 10 3 6 8 10
11 10 2 0 4 -4 4 -10z m78 -326 c28 -5 42 -14 42 -28 0 -11 -12 -14 -51 -12
-27 1 -53 6 -57 12 -4 6 -14 14 -22 17 -12 4 -12 6 2 6 9 1 20 -3 23 -9 3 -5
13 -10 21 -10 11 0 13 6 9 21 -6 17 -4 20 6 13 8 -5 20 -9 27 -10z m114 -18
c3 -16 0 -27 -9 -30 -16 -7 -28 17 -19 39 8 23 23 18 28 -9z m-200 -94 c18
-25 45 -38 97 -46 36 -6 42 -4 38 9 -7 18 -3 19 24 5 10 -6 19 -17 19 -25 0
-18 -75 -20 -134 -4 -36 10 -86 51 -86 70 0 16 29 9 42 -9z m-165 -40 c-39
-40 -47 -58 -22 -48 8 3 15 2 15 -2 0 -10 -74 -32 -110 -32 -16 0 -30 4 -30 9
0 5 -3 16 -6 25 -7 18 30 36 85 41 19 2 46 12 60 24 43 33 48 24 8 -17z m403
-17 c0 -8 -7 -15 -15 -15 -8 0 -15 7 -15 15 0 8 7 15 15 15 8 0 15 -7 15 -15z
m-387 -84 c-6 -22 -54 -35 -65 -18 -4 7 6 16 25 23 45 16 46 16 40 -5z m277
-36 c0 -8 -7 -15 -15 -15 -9 0 -12 6 -9 15 4 8 10 15 15 15 5 0 9 -7 9 -15z
m-690 -19 c0 -15 27 -29 40 -21 13 8 19 -52 17 -165 l-2 -105 -177 -3 c-165
-2 -178 -1 -178 15 0 45 90 149 201 233 83 62 99 70 99 46z m544 -22 c7 -9 28
-19 46 -23 42 -8 38 -27 -4 -23 -35 3 -52 15 -59 42 -6 24 2 26 17 4z m-66
-33 c3 -8 -1 -12 -9 -9 -7 2 -15 10 -17 17 -3 8 1 12 9 9 7 -2 15 -10 17 -17z
m-28 -41 c0 -5 -5 -10 -11 -10 -5 0 -7 5 -4 10 3 6 8 10 11 10 2 0 4 -4 4 -10z
m-222 -22 c8 -8 37 -12 73 -12 38 1 55 -2 46 -8 -8 -4 -56 -9 -106 -10 -50 -2
-91 -6 -91 -10 0 -5 -7 -8 -15 -8 -8 0 -15 8 -15 19 0 22 48 35 68 19 9 -8 11
-7 6 6 -7 19 16 22 34 4z m560 -34 c-3 -3 -18 -2 -34 2 l-27 7 23 19 c24 20
24 20 34 -1 5 -12 7 -24 4 -27z m-209 0 c13 -10 42 -18 65 -20 22 -2 65 -9 93
-15 l53 -12 -3 -44 -2 -43 -117 0 -118 0 0 53 c0 28 -3 62 -6 75 -7 26 3 28
35 6z m-77 -46 c9 -90 19 -85 -185 -91 -100 -2 -183 -4 -184 -3 0 0 -4 24 -8
51 -4 29 -3 45 2 38 5 -8 28 -12 55 -11 33 2 53 -3 66 -15 18 -17 23 -16 108
28 49 25 101 45 115 45 24 0 27 -4 31 -42z m362 -32 c9 -27 16 -51 16 -53 0
-2 -11 -3 -25 -3 -24 0 -25 3 -25 62 0 69 9 68 34 -6z"/>
<path d="M2576 4463 c-4 -10 -42 -83 -86 -163 -43 -80 -86 -170 -96 -200 -9
-30 -18 -57 -20 -58 -1 -2 -34 4 -74 14 -83 20 -147 11 -215 -31 -37 -23 -38
-24 -14 -25 14 0 41 7 59 17 67 33 143 27 251 -21 12 -5 18 4 28 47 13 61 57
156 126 277 39 67 50 79 61 68 30 -31 153 -288 165 -344 l12 -59 50 24 c67 34
164 35 224 3 50 -26 82 -30 64 -8 -17 20 -79 48 -126 57 -35 6 -86 1 -166 -17
-24 -5 -27 -2 -38 40 -6 26 -33 88 -60 139 -140 263 -138 260 -145 240z"/>
<path d="M2576 4165 c-4 -60 -8 -119 -9 -130 -1 -14 4 -20 17 -20 17 0 19 7
17 70 -2 39 -6 97 -10 130 -7 59 -7 59 -15 -50z"/>
<path d="M2554 3975 c-10 -8 -27 -15 -36 -15 -31 0 -19 -20 12 -20 20 0 30 5
30 15 0 17 45 21 55 5 4 -6 9 -35 12 -65 l6 -55 -43 0 -42 0 7 36 c4 26 2 39
-7 45 -21 14 -31 10 -18 -6 17 -20 -2 -65 -26 -65 -9 0 -39 21 -66 46 -73 68
-94 74 -269 74 -84 0 -149 -3 -145 -7 4 -5 31 -13 59 -19 l52 -12 -42 -1 c-53
-1 -56 -18 -5 -26 53 -9 61 -13 29 -14 -39 -1 -30 -25 11 -29 33 -3 45 -22 15
-22 -15 0 -16 -2 -3 -10 8 -5 27 -10 42 -10 15 0 30 -4 33 -10 3 -6 -4 -10
-17 -10 -18 0 -20 -2 -8 -10 8 -5 27 -10 43 -10 15 0 27 -4 27 -10 0 -5 -5
-10 -11 -10 -27 0 5 -18 43 -24 29 -5 38 -10 29 -15 -10 -6 -4 -12 20 -20 19
-6 50 -25 69 -41 l35 -29 -44 -45 -44 -44 28 -26 c15 -14 31 -26 35 -26 4 0
15 18 25 41 16 35 17 47 7 85 -7 24 -12 73 -12 109 l0 64 38 10 c78 20 113 23
164 11 100 -22 91 -12 86 -105 -3 -45 -11 -91 -17 -102 -8 -17 -6 -31 10 -67
11 -25 24 -46 28 -46 5 0 20 12 35 27 l27 26 -43 44 -43 44 35 30 c19 16 46
32 60 35 36 10 44 16 30 24 -8 5 3 11 29 15 42 7 66 25 34 25 -15 0 -16 2 -3
10 8 5 27 10 42 10 15 0 30 5 33 10 3 6 -4 10 -17 10 -18 0 -20 2 -8 10 8 5
27 10 42 10 15 0 30 5 33 10 3 6 -1 10 -10 10 -9 0 -13 5 -10 10 3 6 17 10 30
10 13 0 27 5 30 10 3 6 -3 10 -14 10 -11 0 -23 5 -26 10 -4 6 7 10 27 10 18 0
40 5 48 10 11 7 7 10 -17 10 -52 0 -47 17 7 24 100 13 50 26 -100 26 -173 0
-190 -5 -268 -75 -29 -26 -58 -45 -66 -42 -14 6 -26 50 -26 97 0 40 -47 54
-86 25z"/>
<path d="M1991 3908 c-25 -70 -6 -169 45 -235 25 -33 99 -93 114 -93 4 0 10
18 14 40 4 27 18 51 42 75 28 29 32 36 19 41 -21 8 -62 -30 -77 -73 -7 -18
-15 -33 -19 -33 -20 0 -71 57 -95 106 -24 49 -26 63 -21 124 6 75 -4 99 -22
48z"/>
<path d="M3157 3934 c-3 -3 -3 -36 0 -73 4 -54 2 -76 -14 -112 -22 -50 -79
-119 -97 -119 -7 0 -20 18 -29 39 -18 41 -60 76 -78 66 -5 -4 5 -23 25 -45 19
-21 38 -55 42 -74 3 -20 10 -36 14 -36 17 0 92 63 119 101 36 49 56 131 47
190 -7 47 -19 73 -29 63z"/>
<path d="M2097 3796 c-4 -9 -14 -16 -23 -16 -13 0 -14 -3 -4 -15 7 -8 10 -22
6 -30 -6 -17 9 -21 20 -4 4 8 9 8 17 0 16 -16 27 -13 21 4 -4 8 -1 22 6 30 10
12 10 15 -3 15 -9 0 -20 7 -25 16 -8 15 -10 15 -15 0z"/>
<path d="M3055 3798 c-4 -10 -17 -18 -29 -18 -20 -1 -20 -2 -3 -14 9 -7 15
-20 12 -28 -5 -12 1 -15 24 -14 21 1 31 6 31 17 0 8 5 20 12 27 9 9 7 12 -9
12 -12 0 -23 8 -26 18 -4 16 -4 16 -12 0z"/>
<path d="M2522 3783 c-62 -14 -63 -15 -60 -46 l3 -32 120 0 c119 0 120 0 123
24 5 32 -7 41 -70 55 -43 10 -65 10 -116 -1z m68 -3 c0 -5 -5 -10 -11 -10 -5
0 -7 5 -4 10 3 6 8 10 11 10 2 0 4 -4 4 -10z m-30 -10 c0 -5 -4 -10 -10 -10
-5 0 -10 5 -10 10 0 6 5 10 10 10 6 0 10 -4 10 -10z m70 0 c0 -5 -4 -10 -10
-10 -5 0 -10 5 -10 10 0 6 5 10 10 10 6 0 10 -4 10 -10z m-100 -10 c0 -5 -4
-10 -10 -10 -5 0 -10 5 -10 10 0 6 5 10 10 10 6 0 10 -4 10 -10z m130 0 c0 -5
-4 -10 -10 -10 -5 0 -10 5 -10 10 0 6 5 10 10 10 6 0 10 -4 10 -10z m-160 -4
c0 -11 -19 -15 -25 -6 -3 5 1 10 9 10 9 0 16 -2 16 -4z m190 -6 c0 -5 -4 -10
-10 -10 -5 0 -10 5 -10 10 0 6 5 10 10 10 6 0 10 -4 10 -10z m-190 -24 c0 -11
-19 -15 -25 -6 -3 5 1 10 9 10 9 0 16 -2 16 -4z m35 -6 c-3 -5 -10 -10 -16
-10 -5 0 -9 5 -9 10 0 6 7 10 16 10 8 0 12 -4 9 -10z m40 0 c-3 -5 -10 -10
-16 -10 -5 0 -9 5 -9 10 0 6 7 10 16 10 8 0 12 -4 9 -10z m40 0 c-3 -5 -10
-10 -16 -10 -5 0 -9 5 -9 10 0 6 7 10 16 10 8 0 12 -4 9 -10z m40 0 c-3 -5
-10 -10 -16 -10 -5 0 -9 5 -9 10 0 6 7 10 16 10 8 0 12 -4 9 -10z m35 0 c0 -5
-4 -10 -10 -10 -5 0 -10 5 -10 10 0 6 5 10 10 10 6 0 10 -4 10 -10z"/>
<path d="M2544 3595 c0 -49 1 -71 3 -48 2 23 2 64 0 90 -2 26 -3 8 -3 -42z"/>
<path d="M2503 3615 c0 -33 2 -45 4 -27 2 18 2 45 0 60 -2 15 -4 0 -4 -33z"/>
<path d="M2584 3580 c0 -52 1 -74 3 -47 2 26 2 68 0 95 -2 26 -3 4 -3 -48z"/>
<path d="M2623 3595 c0 -44 2 -61 4 -37 2 23 2 59 0 80 -2 20 -4 1 -4 -43z"/>
<path d="M2650 3608 c0 -45 3 -59 10 -48 13 20 13 110 0 110 -6 0 -10 -27 -10
-62z"/>
<path d="M2457 3506 c-10 -23 -15 -49 -12 -58 8 -19 -12 -35 -49 -40 -16 -1
-31 -7 -33 -13 -2 -6 22 -9 62 -7 36 2 65 8 65 13 0 5 -7 9 -16 9 -9 0 -14 6
-11 13 2 6 11 11 19 9 14 -2 38 36 38 62 0 7 -10 22 -23 34 l-22 21 -18 -43z"/>
<path d="M2664 3522 c-19 -24 -20 -30 -7 -59 8 -22 20 -33 33 -33 26 0 26 -16
0 -23 -41 -11 -18 -22 45 -22 45 0 65 4 65 13 0 7 -12 12 -29 12 -30 0 -57 22
-46 39 5 9 -29 102 -37 100 -2 0 -12 -12 -24 -27z"/>
<path d="M2217 3511 c-15 -73 0 -136 45 -187 46 -53 82 -67 148 -61 l56 5 22
-42 c12 -22 38 -59 56 -81 l34 -40 32 30 c18 17 46 54 62 83 25 43 34 52 51
46 64 -20 136 3 182 58 37 43 46 72 46 140 1 74 -9 89 -29 48 -22 -46 -71 -65
-116 -46 -19 8 -37 12 -40 8 -31 -30 89 -58 134 -30 26 17 31 8 19 -35 -14
-51 -52 -93 -103 -112 -40 -15 -46 -15 -82 0 -36 15 -40 15 -49 -1 -32 -55
-92 -138 -100 -141 -13 -4 -105 132 -105 154 0 12 -3 13 -14 4 -70 -58 -182
-9 -216 94 -14 42 -7 54 20 37 25 -15 81 -15 115 0 29 13 28 35 -1 30 -95 -17
-104 -14 -145 48 l-16 24 -6 -33z"/>
<path d="M2536 3465 c-10 -26 2 -35 48 -35 50 0 56 4 49 31 -4 14 -11 18 -22
13 -20 -8 -32 -8 -52 0 -11 5 -19 1 -23 -9z"/>
<path d="M2603 2805 c3 -16 9 -86 12 -155 7 -142 13 -188 27 -196 6 -4 8 4 4
22 -3 16 -10 98 -15 183 -6 95 -14 157 -21 165 -9 8 -11 4 -7 -19z"/>
<path d="M2617 2228 c-4 -51 -16 -129 -27 -173 -23 -93 -27 -179 -7 -173 6 2
25 29 41 61 25 50 29 68 29 149 1 106 -11 228 -22 228 -5 0 -11 -42 -14 -92z
m18 -172 c-3 -34 -14 -79 -25 -101 l-18 -40 -1 35 c-1 31 15 113 36 190 l7 25
4 -24 c2 -14 1 -52 -3 -85z"/>
<path d="M4398 1733 c12 -2 30 -2 40 0 9 3 -1 5 -23 4 -22 0 -30 -2 -17 -4z"/>
<path d="M4405 1580 c10 -11 26 -20 37 -20 20 0 59 -19 70 -35 5 -6 8 -6 8 1
0 17 -23 33 -58 40 -17 4 -37 13 -43 20 -6 8 -16 14 -22 14 -5 0 -2 -9 8 -20z"/>
<path d="M4388 1523 c7 -3 16 -2 19 1 4 3 -2 6 -13 5 -11 0 -14 -3 -6 -6z"/>
</g>
</svg>
